<?xml version="1.0" encoding="UTF-8"?>
<svg xmlns="http://www.w3.org/2000/svg" xmlns:xlink="http://www.w3.org/1999/xlink" width="42px" height="105px" viewBox="0 0 42 105" version="1.1">
<g id="surface1">
<path style="fill:none;stroke-width:25;stroke-linecap:round;stroke-linejoin:miter;stroke:rgb(0%,0%,0%);stroke-opacity:1;stroke-miterlimit:4;" d="M 52.800409 145.285528 L 52.800409 259.275484 " transform="matrix(0.381818,0,0,0.381818,0,0)"/>
<path style=" stroke:none;fill-rule:nonzero;fill:rgb(0%,0%,0%);fill-opacity:1;" d="M 36.746094 23.546875 C 39.269531 26.171875 40.292969 29.378906 40.851562 32.261719 C 41.445312 35.324219 41.070312 38.351562 39.167969 40.953125 C 39.917969 44.105469 36.730469 48.828125 33.371094 50.566406 C 32.738281 50.894531 31.914062 50.953125 31.339844 51.382812 C 30.582031 51.953125 30.328125 52.589844 29.558594 53.246094 C 26.730469 55.648438 23.636719 56.328125 21.117188 56.445312 C 19.003906 56.542969 16.746094 56.132812 14.832031 54.730469 C 14.15625 54.238281 13.710938 53.4375 12.84375 52.816406 C 12.410156 52.511719 11.582031 52.445312 10.964844 52.207031 C 9.019531 51.449219 7.125 50.539062 5.351562 48.9375 C -1.125 43.105469 -0.554688 36.207031 1.058594 30.523438 C 1.59375 28.636719 1.9375 26.863281 2.046875 24.941406 C 2.28125 20.847656 2.121094 17.546875 2.660156 13.824219 C 3.214844 10.023438 3.902344 6.171875 6.332031 2.683594 C 6.691406 2.171875 7.578125 1.257812 7.984375 0.953125 C 10.496094 -0.9375 15.5625 0.00390625 16.988281 3.617188 C 17.257812 4.292969 17.386719 5.285156 17.410156 6.03125 C 17.554688 10.597656 14.527344 16.066406 14.152344 19.972656 C 17.625 17.082031 21.863281 17.109375 24.609375 21.488281 C 28.671875 19.828125 33.113281 19.773438 36.746094 23.546875 Z M 28.136719 43.464844 C 28.84375 44.128906 28.101562 45.542969 27.769531 46.257812 C 27.101562 47.691406 26.136719 49.082031 24.523438 50.441406 C 23.046875 51.6875 21.421875 52.195312 19.875 52.523438 C 18.277344 52.867188 16.722656 52.667969 15.308594 53.109375 C 17.421875 54.855469 19.910156 55.148438 22.183594 54.773438 C 24.40625 54.402344 27.078125 53.484375 28.867188 51.355469 C 27.953125 50.273438 26.183594 50.945312 25.898438 49.621094 C 26.640625 49.003906 27.332031 49.722656 28.039062 49.851562 C 31.042969 50.382812 35.007812 48.355469 36.964844 44.511719 C 37.328125 43.792969 37.859375 42.746094 37.191406 42.105469 C 34.324219 43.511719 31.644531 43.332031 29.269531 40.953125 C 27.234375 38.917969 26.480469 36.539062 26.367188 34.40625 C 26.316406 33.40625 26.890625 32.421875 25.628906 31.535156 C 25.328125 31.625 25.347656 32.027344 25.292969 32.246094 C 24.90625 33.699219 24.289062 35.34375 23.269531 36.902344 C 22.851562 37.542969 22.175781 38.121094 21.941406 38.707031 C 21.582031 39.605469 22.140625 40.714844 22.03125 41.570312 C 21.828125 43.164062 21.066406 44.722656 19.433594 45.761719 C 15.808594 48.070312 11.007812 45.308594 7.253906 41.945312 C 6.449219 41.222656 5.816406 40.777344 6.234375 40.367188 C 6.511719 40.101562 7.078125 40.523438 7.59375 40.972656 C 10.929688 43.890625 14.652344 46.511719 17.941406 45.414062 C 21.933594 44.085938 21.675781 38.980469 19.441406 36.261719 C 16.394531 32.558594 11.78125 31.589844 8.574219 31.683594 C 7.753906 31.710938 6.953125 32.199219 6.101562 31.648438 C 6.046875 30.78125 7.234375 30.808594 7.808594 30.761719 C 9.117188 30.652344 10.609375 30.808594 11.902344 31.015625 C 11.984375 29.671875 12.292969 28.074219 13.328125 26.546875 C 13.761719 25.910156 14.261719 24.796875 15.175781 25.011719 C 15.617188 25.742188 14.59375 26.320312 14.238281 26.820312 C 13.242188 28.207031 12.855469 29.839844 13.003906 31.226562 C 15.734375 31.921875 19.929688 34.253906 21.382812 37.710938 C 24.679688 34.097656 25.34375 29.25 24.292969 25.128906 C 23.757812 23.042969 22.398438 19.875 19.753906 19.535156 C 17.457031 19.242188 13.476562 21.769531 12.65625 24.507812 C 12.441406 25.210938 12.71875 26.214844 11.90625 26.773438 C 11.039062 26.207031 11.519531 25.011719 11.617188 24.234375 C 12.152344 19.949219 13.679688 15.515625 14.929688 11.136719 C 15.554688 8.933594 16.972656 4.734375 14.332031 2.605469 C 12.601562 1.207031 9.859375 1.042969 7.882812 3.359375 C 5.90625 5.671875 5.09375 9.472656 4.570312 12.097656 C 3.972656 15.09375 3.585938 17.875 3.664062 20.800781 C 3.75 23.757812 3.597656 26.679688 2.957031 29.574219 C 2.273438 32.660156 1.316406 35.460938 1.53125 38.273438 C 1.789062 41.652344 3.503906 45.449219 6.726562 48.105469 C 9.660156 50.527344 13.207031 51.660156 16.566406 51.890625 C 20.121094 52.132812 24.742188 50.304688 26.800781 45.921875 C 27.148438 45.175781 27.226562 44.082031 28.136719 43.464844 Z M 26.492188 30.949219 C 27.183594 30.410156 26.871094 27.871094 28.300781 27.265625 C 29.011719 27.730469 28.414062 28.328125 28.28125 28.699219 C 27.054688 32.09375 26.304688 37.25 30.578125 40.832031 C 32.722656 42.628906 35.582031 42.621094 37.8125 39.957031 C 41.042969 36.105469 39.472656 29.09375 36.007812 25.035156 C 33.085938 21.605469 29.558594 21.617188 26.347656 22.617188 C 24.066406 23.332031 25.648438 26.1875 25.753906 27.945312 C 25.828125 29.171875 25.15625 30.140625 26.492188 30.949219 Z M 26.492188 30.949219 "/>
<path style=" stroke:none;fill-rule:nonzero;fill:rgb(100%,100%,100%);fill-opacity:1;" d="M 28.136719 43.464844 C 28.84375 44.128906 28.101562 45.542969 27.769531 46.257812 C 27.101562 47.691406 26.136719 49.082031 24.523438 50.441406 C 23.046875 51.6875 21.421875 52.195312 19.875 52.523438 C 18.277344 52.867188 16.722656 52.667969 15.308594 53.109375 C 17.421875 54.855469 19.910156 55.148438 22.183594 54.773438 C 24.40625 54.402344 27.078125 53.484375 28.867188 51.355469 C 27.953125 50.273438 26.183594 50.945312 25.898438 49.621094 C 26.640625 49.003906 27.332031 49.722656 28.039062 49.851562 C 31.042969 50.382812 35.007812 48.355469 36.964844 44.511719 C 37.328125 43.792969 37.859375 42.746094 37.191406 42.105469 C 34.324219 43.511719 31.644531 43.332031 29.269531 40.953125 C 27.234375 38.917969 26.480469 36.539062 26.367188 34.40625 C 26.316406 33.40625 26.890625 32.421875 25.628906 31.535156 C 25.328125 31.625 25.347656 32.027344 25.292969 32.246094 C 24.90625 33.699219 24.289062 35.34375 23.269531 36.902344 C 22.851562 37.542969 22.175781 38.121094 21.941406 38.707031 C 21.582031 39.605469 22.140625 40.714844 22.03125 41.570312 C 21.828125 43.164062 21.066406 44.722656 19.433594 45.761719 C 15.808594 48.070312 11.007812 45.308594 7.253906 41.945312 C 6.449219 41.222656 5.816406 40.777344 6.234375 40.367188 C 6.511719 40.101562 7.078125 40.523438 7.59375 40.972656 C 10.929688 43.890625 14.652344 46.511719 17.941406 45.414062 C 21.933594 44.085938 21.675781 38.980469 19.441406 36.261719 C 16.394531 32.558594 11.78125 31.589844 8.574219 31.683594 C 7.753906 31.710938 6.953125 32.199219 6.101562 31.648438 C 6.046875 30.78125 7.234375 30.808594 7.808594 30.761719 C 9.117188 30.652344 10.609375 30.808594 11.902344 31.015625 C 11.984375 29.671875 12.292969 28.074219 13.328125 26.546875 C 13.761719 25.910156 14.261719 24.796875 15.175781 25.011719 C 15.617188 25.742188 14.59375 26.320312 14.238281 26.820312 C 13.242188 28.207031 12.855469 29.839844 13.003906 31.226562 C 15.734375 31.921875 19.929688 34.253906 21.382812 37.710938 C 24.679688 34.097656 25.34375 29.25 24.292969 25.128906 C 23.757812 23.042969 22.398438 19.875 19.753906 19.535156 C 17.457031 19.242188 13.476562 21.769531 12.65625 24.507812 C 12.441406 25.210938 12.71875 26.214844 11.90625 26.773438 C 11.039062 26.207031 11.519531 25.011719 11.617188 24.234375 C 12.152344 19.949219 13.679688 15.515625 14.929688 11.136719 C 15.554688 8.933594 16.972656 4.734375 14.332031 2.605469 C 12.601562 1.207031 9.859375 1.042969 7.882812 3.359375 C 5.90625 5.671875 5.09375 9.472656 4.570312 12.097656 C 3.972656 15.09375 3.585938 17.875 3.664062 20.800781 C 3.75 23.757812 3.597656 26.679688 2.957031 29.574219 C 2.273438 32.660156 1.316406 35.460938 1.53125 38.273438 C 1.789062 41.652344 3.503906 45.449219 6.726562 48.105469 C 9.660156 50.527344 13.207031 51.660156 16.566406 51.890625 C 20.121094 52.132812 24.742188 50.304688 26.800781 45.921875 C 27.148438 45.175781 27.226562 44.082031 28.136719 43.464844 Z M 26.492188 30.949219 C 27.183594 30.410156 26.871094 27.871094 28.300781 27.265625 C 29.011719 27.730469 28.414062 28.328125 28.28125 28.699219 C 27.054688 32.09375 26.304688 37.25 30.578125 40.832031 C 32.722656 42.628906 35.582031 42.621094 37.8125 39.957031 C 41.042969 36.105469 39.472656 29.09375 36.007812 25.035156 C 33.085938 21.605469 29.558594 21.617188 26.347656 22.617188 C 24.066406 23.332031 25.648438 26.1875 25.753906 27.945312 C 25.828125 29.171875 25.15625 30.140625 26.492188 30.949219 Z M 26.492188 30.949219 "/>
</g>
</svg>
