<?xml version="1.0" encoding="UTF-8"?>
<svg xmlns="http://www.w3.org/2000/svg" xmlns:xlink="http://www.w3.org/1999/xlink" width="190px" height="238px" viewBox="0 0 190 238" version="1.1">
<g id="surface1">
<path style=" stroke:none;fill-rule:nonzero;fill:rgb(0%,0%,0%);fill-opacity:1;" d="M 119.148438 61.960938 C 119.148438 41.886719 101.804688 25.617188 80.40625 25.617188 C 59.007812 25.617188 41.660156 41.886719 41.660156 61.960938 C 41.660156 82.03125 59.007812 98.300781 80.40625 98.300781 C 101.804688 98.300781 119.148438 82.03125 119.148438 61.960938 Z M 119.148438 61.960938 "/>
<path style=" stroke:none;fill-rule:nonzero;fill:rgb(0%,0%,0%);fill-opacity:1;" d="M 133.292969 55.234375 C 133.292969 45.203125 127.859375 37.074219 121.160156 37.074219 C 114.457031 37.074219 109.023438 45.203125 109.023438 55.234375 C 109.023438 65.265625 114.457031 73.398438 121.160156 73.398438 C 127.859375 73.398438 133.292969 65.265625 133.292969 55.234375 Z M 133.292969 55.234375 "/>
<path style=" stroke:none;fill-rule:nonzero;fill:rgb(0%,0%,0%);fill-opacity:1;" d="M 69.421875 79.96875 C 83.511719 82.695312 96.566406 110.230469 99.894531 112.363281 C 104.675781 115.941406 106.808594 121.3125 106.382812 128.554688 C 106.039062 134.265625 104.246094 140.148438 101 146.285156 C 100.742188 146.710938 101.085938 147.5625 101.851562 148.671875 C 102.449219 149.609375 103.046875 150.460938 103.730469 151.058594 C 95.015625 159.5 85.195312 166.574219 74.351562 172.367188 C 63.761719 177.90625 54.707031 180.976562 47.195312 181.488281 C 38.65625 182.089844 31.648438 181.148438 26.097656 178.507812 C 19.859375 175.523438 16.191406 170.753906 15.082031 164.1875 C 15.167969 169.902344 17.8125 174.503906 22.9375 177.914062 C 28.742188 181.835938 36.855469 183.453125 47.273438 182.855469 C 55.039062 182.175781 63.5 179.53125 72.632812 174.929688 C 78.953125 171.691406 88.007812 166.152344 99.703125 158.226562 L 90.738281 172.714844 C 88.089844 173.230469 85.613281 174.25 83.390625 175.867188 C 81.082031 177.40625 79.800781 178.9375 79.460938 180.46875 C 78.09375 181.40625 75.445312 182.519531 71.601562 183.878906 L 59.984375 187.714844 C 49.398438 191.550781 42.136719 196.070312 38.121094 201.351562 C 33.765625 207.148438 33.171875 212.773438 36.5 218.402344 C 39.0625 223.003906 43.671875 226.839844 50.164062 230.164062 C 54.949219 232.546875 60.414062 234 66.472656 234.339844 C 72.453125 234.765625 78.34375 234.171875 84.152344 232.550781 C 90.128906 230.847656 95.335938 228.289062 99.691406 224.710938 C 104.476562 220.964844 107.804688 216.449219 109.769531 211.160156 C 118.476562 213.632812 127.191406 214.910156 135.816406 215.253906 C 143.929688 215.421875 151.53125 214.742188 158.617188 213.039062 C 165.449219 211.417969 171.253906 208.949219 175.953125 205.792969 C 180.734375 202.554688 183.980469 198.800781 185.6875 194.457031 C 188.417969 187.550781 187.054688 181.332031 181.589844 175.957031 C 179.453125 174 176.980469 172.296875 174.074219 170.84375 C 171.59375 169.566406 169.292969 168.800781 167.15625 168.375 C 160.070312 167.09375 150.929688 169.484375 139.660156 175.703125 C 139.058594 174.9375 138.035156 174.171875 136.753906 173.574219 C 135.554688 172.894531 134.363281 172.46875 133.25 172.296875 C 135.8125 166.074219 139.308594 159.941406 143.578125 153.886719 C 145.972656 153.546875 148.703125 152.355469 151.867188 150.476562 C 155.027344 148.519531 157.417969 146.554688 158.953125 144.425781 C 156.730469 139.484375 155.195312 133.601562 154.34375 126.863281 C 156.390625 117.066406 154.511719 108.542969 148.621094 101.464844 C 143.582031 95.332031 136.238281 90.894531 126.757812 88.085938 C 120.269531 85.4375 117.875 84.59375 130.125 67.667969 M 132.632812 48.367188 L 129.585938 42.394531 C 130.527344 40.777344 131.039062 38.8125 131.210938 36.515625 C 131.296875 34.382812 131.039062 32.253906 130.441406 30.207031 C 129.757812 28.164062 128.734375 26.460938 127.367188 25.179688 C 125.917969 23.820312 124.207031 23.136719 122.160156 23.050781 C 117.460938 22.96875 114.730469 24.925781 113.875 29.015625 C 113.195312 32.085938 113.789062 36.007812 115.328125 40.695312 C 114.046875 41.207031 113.195312 41.722656 112.765625 42.0625 C 110.632812 38.140625 107.644531 34.902344 103.800781 32.34375 C 100.125 29.875 96.027344 28.167969 91.328125 27.316406 C 86.714844 26.378906 82.1875 26.292969 77.40625 26.976562 C 72.535156 27.746094 68.011719 29.28125 63.828125 31.664062 C 66.304688 26.042969 66.644531 20.753906 64.769531 15.8125 C 63.140625 11.296875 60.070312 7.886719 55.628906 5.417969 C 51.132812 2.925781 46.4375 2.15625 41.398438 3.007812 C 35.847656 3.945312 31.152344 6.671875 27.222656 11.359375 C 23.039062 16.21875 20.5625 21.503906 19.792969 27.042969 C 19.019531 32.242188 19.792969 36.847656 22.097656 41.023438 C 24.3125 45.199219 27.5625 48.011719 31.917969 49.632812 C 36.527344 51.25 41.652344 51.078125 47.117188 49.03125 C 46.003906 51.589844 45.152344 54.3125 44.640625 57.296875 C 43.957031 60.707031 43.875 63.859375 44.128906 66.753906 M 129.019531 43.828125 C 132.179688 47.664062 133.289062 52.351562 132.351562 57.804688 C 131.410156 63.773438 128.167969 69.398438 122.871094 74.683594 C 120.050781 77.414062 116.980469 79.542969 113.304688 81.164062 C 109.804688 82.785156 106.21875 83.722656 102.542969 83.976562 C 98.871094 84.316406 95.371094 83.890625 92.210938 82.871094 C 88.796875 81.675781 86.066406 79.886719 83.929688 77.414062 C 85.039062 76.816406 87.003906 76.136719 89.738281 75.285156 C 86.917969 74.6875 84.101562 75.453125 81.195312 77.5 C 78.464844 79.460938 77.183594 81.503906 77.355469 83.722656 L 79.230469 81.25 C 80 80.3125 80.765625 79.632812 81.539062 79.035156 C 82.988281 80.140625 84.441406 81.84375 86.0625 84.148438 L 90.074219 90.28125 C 91.695312 92.582031 93.148438 94.285156 94.429688 95.398438 C 96.21875 96.84375 98.101562 97.527344 99.980469 97.527344 C 103.992188 97.527344 107.496094 95.476562 110.570312 91.300781 C 111.507812 89.851562 112.621094 88.148438 113.554688 86.1875 L 115.519531 82.011719 C 118.167969 80.816406 120.214844 79.457031 121.667969 78.175781 C 121.496094 79.28125 120.902344 80.648438 120.046875 82.265625 L 118.339844 84.90625 L 117.484375 85.925781 L 117.914062 84.558594 L 118.421875 83.28125 C 118.167969 83.28125 117.480469 84.132812 116.539062 85.925781 L 113.039062 91.550781 C 109.28125 97.003906 105.691406 99.816406 102.109375 99.988281 C 98.519531 100.242188 95.277344 99.304688 92.460938 97.433594 C 91.257812 96.578125 89.042969 94.535156 85.714844 91.210938 C 85.625 91.636719 86.140625 92.65625 87.421875 94.363281 C 78.453125 92.230469 71.023438 90.269531 65.214844 88.480469 C 64.101562 86.777344 63.847656 84.726562 64.1875 82.257812 C 64.617188 79.78125 65.726562 77.394531 67.433594 75.097656 C 69.394531 72.539062 71.871094 70.410156 74.945312 68.871094 C 78.363281 66.996094 82.292969 65.976562 86.5625 65.714844 C 84.425781 64.609375 81.691406 62.90625 78.617188 60.515625 C 75.199219 57.957031 72.125 55.230469 69.390625 52.503906 C 62.304688 45.183594 59.914062 39.8125 62.304688 36.316406 C 64.78125 32.484375 69.136719 30.265625 75.367188 29.667969 C 81.175781 29.074219 86.472656 29.839844 91.167969 32.054688 L 89.546875 30.179688 C 88.691406 29.238281 88.179688 28.644531 87.921875 28.132812 C 91.761719 28.21875 95.859375 29.414062 100.21875 31.710938 C 105.167969 34.269531 109.265625 37.851562 112.253906 42.367188 L 111.0625 43.476562 C 109.613281 40.324219 107.472656 37.769531 104.570312 35.722656 C 101.839844 33.765625 100.042969 33.253906 99.105469 34.019531 C 98.421875 34.703125 98.761719 36.0625 100.132812 38.109375 C 100.816406 39.304688 102.351562 41.179688 104.660156 43.90625 C 105.515625 45.441406 106.796875 46.722656 108.332031 47.65625 C 107.390625 50.214844 106.964844 52.003906 107.050781 52.941406 C 108.414062 49.789062 109.613281 47.570312 110.636719 46.125 C 112.085938 44.164062 113.792969 42.800781 115.757812 41.863281 C 116.1875 43.3125 116.953125 44.503906 117.976562 45.527344 C 119.003906 46.464844 120.113281 47.058594 121.394531 47.316406 C 124.300781 47.910156 126.859375 46.71875 128.996094 43.820312 Z M 110.660156 43.914062 L 109.546875 45.449219 C 108.351562 43.746094 107.242188 42.808594 106.128906 42.554688 C 105.53125 42.46875 105.105469 42.554688 104.847656 42.808594 L 101.179688 38.207031 C 99.898438 36.332031 99.386719 35.140625 99.726562 34.710938 L 101.265625 34.796875 L 104.167969 36.417969 C 106.816406 38.375 108.949219 40.847656 110.660156 43.917969 Z M 99.128906 88.917969 C 100.75 88.238281 102.546875 87.984375 104.335938 88.152344 C 106.644531 88.410156 108.351562 89.347656 109.289062 90.964844 C 106.042969 95.140625 102.710938 96.847656 99.296875 96.082031 C 95.621094 95.308594 92.125 91.820312 88.707031 85.59375 C 91.183594 85.082031 93.484375 85.675781 95.707031 87.296875 C 97.496094 88.578125 99.035156 90.363281 100.40625 92.667969 C 100.40625 91.8125 99.976562 90.535156 99.125 88.917969 Z M 167.019531 170.148438 C 171.972656 171.257812 176.15625 173.472656 179.65625 176.625 C 184.867188 181.316406 186.320312 187.023438 184.011719 193.589844 C 182.476562 197.933594 179.144531 201.6875 174.019531 204.835938 C 169.15625 207.820312 163.089844 210.035156 155.832031 211.484375 C 148.746094 212.933594 141.316406 213.53125 133.457031 213.273438 C 125.34375 212.933594 117.660156 211.738281 110.484375 209.695312 C 112.621094 203.726562 112.707031 196.402344 110.832031 187.621094 C 113.90625 189.242188 117.578125 190.09375 121.765625 190.261719 C 125.609375 190.433594 129.285156 190.007812 132.699219 188.898438 C 136.117188 187.707031 138.59375 186.171875 140.046875 184.128906 C 141.667969 181.910156 141.839844 179.441406 140.472656 176.714844 L 146.707031 173.992188 C 149.183594 172.964844 151.316406 172.113281 153.023438 171.519531 C 158.0625 169.902344 162.671875 169.386719 167.03125 170.15625 Z M 102.542969 153.015625 L 103.226562 152.421875 L 101.347656 155.664062 L 100.75 156.089844 L 102.542969 153.019531 Z M 113.21875 175.007812 C 114.5 174.238281 115.523438 173.8125 116.207031 173.644531 L 114.925781 177.394531 C 114.839844 178.328125 115.351562 179.097656 116.460938 179.609375 C 117.488281 180.207031 118.769531 180.546875 120.476562 180.714844 C 124.320312 181.058594 127.5625 180.460938 130.125 179.015625 C 130.46875 178.761719 130.980469 177.820312 131.578125 176.203125 C 132.175781 174.5 132.6875 173.390625 132.859375 173.136719 C 136.359375 174.078125 138.578125 175.78125 139.519531 178.253906 C 140.457031 180.46875 140.03125 182.515625 138.238281 184.132812 C 137.042969 185.242188 135.335938 186.179688 133.113281 187.03125 C 130.808594 187.800781 128.417969 188.308594 125.769531 188.566406 C 119.449219 189.078125 114.242188 188.058594 110.054688 185.503906 L 109.371094 184.222656 C 111.082031 181.921875 111.507812 179.367188 110.652344 176.726562 C 111.167969 176.210938 112.019531 175.703125 113.222656 175.019531 Z M 116.550781 157.367188 L 120.902344 157.875 C 123.039062 157.960938 124.660156 157.960938 125.601562 157.789062 C 122.183594 163.160156 119.367188 167.761719 117.316406 171.769531 C 114.414062 172.535156 112.023438 173.8125 110.230469 175.6875 C 110.144531 175.261719 109.800781 174.667969 109.203125 174.15625 C 108.605469 173.5625 108.09375 173.304688 107.582031 173.21875 C 112.28125 164.613281 115.183594 159.328125 116.550781 157.367188 Z M 100.75 180.546875 C 102.714844 179.867188 104.253906 178.84375 105.359375 177.648438 L 107.242188 174.15625 C 108.523438 174.84375 109.378906 175.863281 109.71875 177.480469 C 110.058594 179.101562 109.71875 180.71875 108.777344 182.335938 C 107.667969 184.214844 105.960938 185.746094 103.566406 186.859375 C 100.835938 188.222656 97.335938 188.988281 93.234375 189.160156 C 89.5625 189.246094 86.574219 188.820312 84.183594 187.714844 C 82.046875 186.777344 80.765625 185.410156 80.339844 183.710938 C 80 182.09375 80.507812 180.386719 82.132812 178.683594 C 83.839844 176.804688 86.402344 175.273438 89.902344 173.996094 C 88.367188 176.550781 87.597656 177.917969 87.597656 178.257812 C 87.851562 179.449219 88.621094 180.386719 90.074219 180.980469 C 91.355469 181.582031 93.0625 181.835938 95.023438 181.753906 C 96.992188 181.667969 98.871094 181.242188 100.75 180.5625 Z M 108.179688 185.40625 C 109.800781 188.476562 110.65625 192.480469 110.65625 197.511719 C 110.742188 202.96875 109.800781 207.566406 107.753906 211.574219 C 105.105469 217.199219 101.175781 221.71875 95.96875 225.210938 C 91.355469 228.28125 86.0625 230.410156 80 231.519531 L 63.773438 232.117188 C 58.648438 231.519531 54.292969 230.242188 50.875 228.363281 C 42.160156 223.675781 37.382812 218.394531 36.609375 212.597656 C 36.183594 208.761719 37.207031 205.351562 39.765625 202.199219 C 43.777344 197.511719 49.929688 193.503906 58.125 190.265625 L 68.714844 186.429688 C 72.984375 184.894531 76.398438 183.53125 78.960938 182.25 C 78.703125 184.554688 79.644531 186.429688 81.863281 187.875 C 83.914062 189.242188 86.648438 190.09375 90.144531 190.433594 C 93.5625 190.773438 96.890625 190.519531 100.050781 189.667969 C 103.550781 188.730469 106.28125 187.363281 108.164062 185.40625 Z M 109.546875 106.734375 C 111.9375 103.925781 114.925781 101.539062 118.769531 99.578125 C 122.441406 97.617188 126.285156 96.339844 130.210938 95.828125 C 134.3125 95.230469 138.070312 95.488281 141.3125 96.679688 C 144.472656 98.980469 147.035156 101.539062 148.914062 104.265625 C 151.136719 107.335938 152.503906 110.742188 153.183594 114.324219 C 154.125 119.183594 153.695312 125.574219 151.988281 133.5 C 152.417969 133.160156 153.015625 131.96875 153.78125 130.09375 C 153.957031 133.675781 155.238281 138.363281 157.542969 144.15625 C 151.140625 150.464844 142.945312 153.785156 132.78125 154.046875 C 134.492188 150.296875 135.683594 147.140625 136.285156 144.582031 C 139.015625 143.644531 141.835938 142.113281 144.652344 140.066406 C 147.640625 137.769531 149.347656 135.722656 149.691406 133.933594 C 146.789062 137.167969 143.203125 139.898438 138.933594 142.203125 C 136.714844 143.3125 133.980469 144.507812 130.652344 145.699219 L 135.09375 145.019531 C 133.558594 149.28125 132.277344 152.605469 131.25 154.90625 C 125.105469 157.039062 118.953125 157.039062 112.894531 154.992188 C 110.25 154.054688 108.03125 152.863281 106.148438 151.410156 C 104.273438 149.964844 102.992188 148.34375 102.222656 146.722656 C 105.472656 140.757812 107.261719 135.386719 107.863281 130.785156 C 108.460938 125.84375 107.605469 120.988281 105.386719 116.214844 C 105.558594 112.890625 107.007812 109.820312 109.570312 106.757812 Z M 64.199219 87.816406 L 64.457031 88.242188 "/>
<path style=" stroke:none;fill-rule:nonzero;fill:rgb(99.215686%,88.235295%,76.862746%);fill-opacity:1;" d="M 132.347656 57.8125 C 133.289062 52.359375 132.175781 47.671875 129.015625 43.835938 C 126.882812 46.734375 124.320312 47.925781 121.417969 47.332031 C 120.136719 47.074219 119.027344 46.476562 118 45.539062 C 116.976562 44.515625 116.207031 43.324219 115.78125 41.875 C 113.816406 42.8125 112.109375 44.175781 110.65625 46.136719 C 109.632812 47.585938 108.433594 49.800781 107.070312 52.953125 C 106.984375 52.015625 107.410156 50.226562 108.351562 47.667969 C 106.8125 46.734375 105.53125 45.453125 104.679688 43.917969 C 102.371094 41.191406 100.835938 39.316406 100.152344 38.125 C 98.785156 36.078125 98.445312 34.714844 99.128906 34.03125 C 100.066406 33.265625 101.859375 33.777344 104.59375 35.738281 C 107.496094 37.78125 109.632812 40.339844 111.082031 43.492188 L 112.277344 42.386719 C 109.289062 37.863281 105.191406 34.289062 100.238281 31.730469 C 95.882812 29.425781 91.78125 28.234375 87.941406 28.148438 C 88.195312 28.660156 88.707031 29.253906 89.5625 30.195312 L 91.183594 32.070312 C 86.488281 29.851562 81.195312 29.085938 75.386719 29.679688 C 69.152344 30.273438 64.796875 32.492188 62.320312 36.328125 C 59.929688 39.820312 62.320312 45.191406 69.410156 52.519531 C 72.140625 55.242188 75.214844 57.972656 78.632812 60.53125 C 81.707031 62.914062 84.441406 64.621094 86.578125 65.726562 C 82.308594 65.980469 78.382812 67.003906 74.964844 68.875 C 71.894531 70.410156 69.414062 72.539062 67.453125 75.097656 C 65.746094 77.394531 64.636719 79.785156 64.210938 82.257812 C 63.867188 84.726562 64.128906 86.773438 65.234375 88.476562 C 73.964844 100.023438 83.277344 96.238281 87.441406 94.359375 C 86.160156 92.652344 85.652344 91.628906 85.734375 91.203125 C 89.0625 94.523438 91.285156 96.570312 92.480469 97.421875 C 95.300781 99.292969 98.542969 100.234375 102.132812 99.980469 C 105.722656 99.808594 109.304688 96.996094 113.066406 91.535156 L 116.570312 85.910156 C 117.511719 84.121094 118.191406 83.265625 118.445312 83.265625 L 117.933594 84.550781 L 118.359375 84.894531 L 120.066406 82.25 C 120.921875 80.628906 121.515625 79.269531 121.6875 78.15625 C 120.242188 79.4375 118.191406 80.800781 115.542969 81.992188 L 113.582031 86.167969 C 112.640625 88.132812 111.53125 89.835938 110.589844 91.285156 C 107.515625 95.460938 104.019531 97.503906 100.003906 97.503906 C 98.125 97.503906 96.246094 96.820312 94.449219 95.371094 C 93.171875 94.265625 91.722656 92.558594 90.09375 90.257812 L 86.078125 84.125 C 84.457031 81.820312 83.003906 80.117188 81.554688 79.011719 C 80.785156 79.605469 80.019531 80.289062 79.25 81.226562 L 77.371094 83.699219 C 77.203125 81.480469 78.484375 79.4375 81.214844 77.476562 C 84.117188 75.429688 86.9375 74.660156 89.753906 75.257812 C 87.023438 76.109375 85.058594 76.789062 83.949219 77.390625 C 86.082031 79.859375 88.8125 81.652344 92.230469 82.84375 C 95.390625 83.863281 98.894531 84.289062 102.566406 83.949219 C 106.234375 83.695312 109.824219 82.757812 113.328125 81.136719 C 117 79.519531 120.074219 77.386719 122.894531 74.660156 C 128.191406 69.375 131.433594 63.75 132.375 57.785156 Z M 97.847656 40.511719 C 101.003906 43.238281 103.226562 45.878906 104.421875 48.351562 C 105.449219 50.484375 105.535156 52.101562 104.679688 53.121094 L 99.816406 53.289062 C 97.253906 52.179688 94.351562 50.132812 91.105469 46.984375 C 87.949219 43.828125 85.816406 41.101562 84.703125 38.886719 C 83.765625 36.839844 83.847656 35.476562 84.875 34.796875 C 85.816406 34.109375 87.523438 34.28125 89.746094 35.222656 C 92.304688 36.242188 95.042969 37.945312 97.859375 40.503906 Z M 97.847656 40.511719 "/>
<path style=" stroke:none;fill-rule:nonzero;fill:rgb(0%,0%,0%);fill-opacity:1;" d="M 104.421875 48.351562 C 103.226562 45.878906 101.003906 43.238281 97.847656 40.511719 C 95.027344 37.953125 92.296875 36.25 89.734375 35.226562 C 87.511719 34.289062 85.804688 34.117188 84.867188 34.800781 C 83.839844 35.480469 83.753906 36.84375 84.695312 38.890625 C 85.804688 41.105469 87.9375 43.832031 91.101562 46.988281 C 94.34375 50.136719 97.246094 52.183594 99.808594 53.292969 L 104.679688 53.121094 C 105.53125 52.097656 105.445312 50.476562 104.421875 48.347656 Z M 94.859375 46.5625 C 94.003906 46.734375 93.664062 47.160156 93.746094 47.925781 C 90.074219 44.515625 87.515625 41.621094 86.0625 39.402344 C 84.867188 37.359375 84.695312 36.078125 85.464844 35.566406 C 86.234375 34.96875 87.683594 35.140625 89.820312 36.164062 C 92.125 37.1875 94.515625 38.804688 97.164062 41.023438 C 100.238281 43.75 102.375 46.308594 103.738281 48.695312 C 105.105469 51.335938 104.847656 52.785156 102.972656 53.039062 C 102.375 50.398438 100.664062 48.4375 97.761719 47.160156 C 96.566406 46.648438 95.710938 46.476562 94.859375 46.5625 Z M 94.859375 46.5625 "/>
<path style=" stroke:none;fill-rule:nonzero;fill:rgb(100%,100%,100%);fill-opacity:1;" d="M 93.746094 47.925781 C 93.660156 47.160156 94.003906 46.734375 94.859375 46.5625 C 95.710938 46.476562 96.566406 46.648438 97.761719 47.160156 C 100.664062 48.4375 102.371094 50.398438 102.972656 53.039062 C 104.847656 52.785156 105.105469 51.335938 103.738281 48.691406 C 102.371094 46.308594 100.238281 43.75 97.164062 41.027344 C 94.515625 38.808594 92.125 37.191406 89.820312 36.171875 C 87.683594 35.152344 86.230469 34.976562 85.464844 35.578125 C 84.691406 36.089844 84.863281 37.367188 86.058594 39.414062 C 87.507812 41.628906 90.070312 44.527344 93.738281 47.9375 Z M 118.339844 84.917969 L 117.914062 84.578125 L 117.488281 85.941406 L 118.339844 84.921875 Z M 109.546875 45.453125 L 110.65625 43.917969 C 108.949219 40.851562 106.8125 38.378906 104.164062 36.417969 L 101.261719 34.800781 L 99.722656 34.714844 C 99.382812 35.140625 99.898438 36.335938 101.179688 38.210938 L 104.847656 42.8125 C 105.109375 42.554688 105.535156 42.472656 106.128906 42.554688 C 107.242188 42.8125 108.351562 43.75 109.546875 45.453125 Z M 109.546875 45.453125 "/>
<path style=" stroke:none;fill-rule:nonzero;fill:rgb(98.431373%,53.725493%,43.921569%);fill-opacity:1;" d="M 104.335938 88.15625 C 102.542969 87.984375 100.75 88.242188 99.128906 88.921875 C 99.980469 90.546875 100.410156 91.824219 100.410156 92.679688 C 99.042969 90.378906 97.503906 88.589844 95.710938 87.308594 C 93.492188 85.691406 91.183594 85.097656 88.707031 85.605469 C 92.125 91.832031 95.625 95.320312 99.296875 96.09375 C 102.714844 96.859375 106.042969 95.152344 109.289062 90.976562 C 108.351562 89.359375 106.640625 88.421875 104.335938 88.167969 Z M 104.335938 88.15625 "/>
<path style=" stroke:none;fill-rule:nonzero;fill:rgb(99.215686%,75.686276%,23.529412%);fill-opacity:1;" d="M 179.65625 176.628906 C 176.15625 173.472656 171.972656 171.257812 167.019531 170.152344 C 162.664062 169.382812 158.050781 169.894531 153.011719 171.515625 C 151.304688 172.113281 149.171875 172.964844 146.695312 173.992188 L 140.460938 176.71875 C 141.828125 179.449219 141.65625 181.921875 140.03125 184.136719 C 138.582031 186.183594 136.105469 187.71875 132.6875 188.914062 C 129.273438 190.019531 125.601562 190.445312 121.757812 190.277344 C 117.574219 190.109375 113.902344 189.257812 110.824219 187.636719 C 112.703125 196.417969 112.621094 203.746094 110.484375 209.714844 C 117.65625 211.757812 125.34375 212.953125 133.457031 213.296875 C 141.3125 213.554688 148.742188 212.957031 155.832031 211.503906 C 163.089844 210.058594 169.15625 207.84375 174.019531 204.859375 C 179.144531 201.707031 182.480469 197.957031 184.015625 193.609375 C 186.324219 187.042969 184.867188 181.335938 179.664062 176.648438 Z M 179.65625 176.628906 "/>
<path style=" stroke:none;fill-rule:nonzero;fill:rgb(100%,100%,100%);fill-opacity:1;" d="M 103.226562 152.421875 L 102.542969 153.019531 L 100.75 156.085938 L 101.347656 155.660156 Z M 103.226562 152.421875 "/>
<path style=" stroke:none;fill-rule:nonzero;fill:rgb(99.215686%,75.686276%,23.529412%);fill-opacity:1;" d="M 116.207031 173.644531 C 115.523438 173.816406 114.5 174.242188 113.21875 175.007812 C 112.023438 175.691406 111.167969 176.203125 110.65625 176.714844 C 111.511719 179.355469 111.082031 181.914062 109.375 184.214844 L 110.058594 185.492188 C 114.242188 188.050781 119.453125 189.074219 125.773438 188.5625 C 128.417969 188.304688 130.808594 187.792969 133.117188 187.027344 C 135.335938 186.175781 137.042969 185.238281 138.238281 184.128906 C 140.03125 182.511719 140.460938 180.464844 139.519531 178.25 C 138.582031 175.777344 136.359375 174.070312 132.859375 173.132812 C 132.691406 173.386719 132.175781 174.5 131.578125 176.203125 C 130.980469 177.820312 130.46875 178.757812 130.128906 179.011719 C 127.566406 180.460938 124.320312 181.058594 120.480469 180.71875 C 118.769531 180.546875 117.488281 180.207031 116.464844 179.605469 C 115.355469 179.09375 114.839844 178.328125 114.925781 177.390625 L 116.207031 173.636719 Z M 105.359375 177.652344 C 104.25 178.84375 102.710938 179.867188 100.75 180.550781 C 98.871094 181.230469 96.992188 181.65625 95.027344 181.742188 C 93.0625 181.828125 91.355469 181.570312 90.074219 180.972656 C 88.621094 180.378906 87.851562 179.441406 87.59375 178.25 C 87.59375 177.90625 88.363281 176.542969 89.898438 173.984375 C 86.394531 175.265625 83.832031 176.796875 82.125 178.675781 C 80.503906 180.378906 79.988281 182.082031 80.328125 183.703125 C 80.757812 185.40625 82.039062 186.773438 84.171875 187.707031 C 86.5625 188.816406 89.550781 189.242188 93.222656 189.15625 C 97.320312 188.988281 100.820312 188.21875 103.550781 186.855469 C 105.941406 185.746094 107.648438 184.214844 108.761719 182.335938 C 109.699219 180.71875 110.042969 179.101562 109.699219 177.480469 C 109.359375 175.859375 108.503906 174.839844 107.222656 174.15625 L 105.339844 177.652344 Z M 110.65625 197.511719 C 110.65625 192.480469 109.800781 188.476562 108.179688 185.40625 C 106.300781 187.367188 103.566406 188.730469 100.066406 189.667969 C 96.90625 190.523438 93.578125 190.777344 90.160156 190.433594 C 86.660156 190.09375 83.921875 189.242188 81.875 187.878906 C 79.652344 186.429688 78.710938 184.554688 78.972656 182.253906 C 76.410156 183.53125 72.992188 184.894531 68.722656 186.429688 L 58.132812 190.265625 C 49.933594 193.503906 43.789062 197.507812 39.773438 202.195312 C 37.210938 205.347656 36.183594 208.753906 36.609375 212.589844 C 37.378906 218.386719 42.160156 223.671875 50.871094 228.355469 C 54.285156 230.234375 58.636719 231.511719 63.761719 232.105469 L 79.988281 231.507812 C 86.050781 230.394531 91.347656 228.265625 95.957031 225.199219 C 101.167969 221.703125 105.09375 217.183594 107.742188 211.5625 C 109.789062 207.554688 110.726562 202.953125 110.644531 197.496094 Z M 62.40625 193.84375 L 68.128906 194.1875 C 71.542969 194.613281 75.046875 195.378906 78.886719 196.230469 C 88.878906 198.703125 94.773438 201.175781 96.480469 203.730469 C 91.183594 201.003906 85.292969 198.957031 78.886719 197.425781 Z M 62.40625 193.84375 "/>
<path style=" stroke:none;fill-rule:nonzero;fill:rgb(0%,0%,0%);fill-opacity:1;" d="M 68.128906 194.1875 L 62.40625 193.84375 L 78.886719 197.425781 C 85.292969 198.957031 91.183594 201.003906 96.480469 203.730469 C 94.773438 201.175781 88.878906 198.703125 78.886719 196.230469 C 75.042969 195.378906 71.542969 194.613281 68.128906 194.1875 Z M 68.128906 194.1875 "/>
<path style=" stroke:none;fill-rule:nonzero;fill:rgb(98.823529%,10.196079%,13.333334%);fill-opacity:1;" d="M 118.769531 99.578125 C 114.925781 101.539062 111.9375 103.925781 109.546875 106.738281 C 106.984375 109.804688 105.535156 112.875 105.363281 116.199219 C 107.582031 120.96875 108.4375 125.828125 107.835938 130.773438 C 107.242188 135.378906 105.449219 140.746094 102.203125 146.714844 C 102.976562 148.332031 104.257812 149.949219 106.132812 151.402344 C 108.015625 152.851562 110.238281 154.046875 112.886719 154.984375 C 118.949219 157.027344 125.097656 157.027344 131.246094 154.902344 C 132.273438 152.605469 133.554688 149.28125 135.089844 145.019531 L 130.652344 145.699219 C 133.980469 144.507812 136.714844 143.3125 138.9375 142.207031 C 143.207031 139.910156 146.796875 137.179688 149.699219 133.941406 C 149.359375 135.734375 147.652344 137.777344 144.660156 140.078125 C 141.84375 142.125 139.023438 143.660156 136.292969 144.597656 C 135.695312 147.15625 134.5 150.304688 132.792969 154.058594 C 142.953125 153.800781 151.152344 150.476562 157.558594 144.171875 C 155.257812 138.375 153.976562 133.6875 153.800781 130.109375 C 153.035156 131.988281 152.433594 133.179688 152.011719 133.519531 C 153.71875 125.59375 154.148438 119.203125 153.207031 114.347656 C 152.527344 110.769531 151.160156 107.359375 148.9375 104.289062 C 147.054688 101.5625 144.492188 99.007812 141.335938 96.707031 C 138.089844 95.511719 134.332031 95.257812 130.234375 95.851562 C 126.304688 96.363281 122.460938 97.644531 118.792969 99.605469 Z M 140.800781 103.925781 C 140.800781 102.132812 141.3125 101.113281 142.421875 100.769531 C 143.535156 100.515625 144.730469 100.941406 146.097656 102.222656 C 146.867188 102.992188 147.636719 103.839844 148.230469 104.863281 C 148.917969 105.804688 149.511719 106.996094 150.027344 108.359375 C 151.054688 111.089844 151.566406 113.222656 151.566406 115.007812 C 151.484375 116.632812 151.058594 117.566406 150.203125 117.910156 C 149.261719 118.335938 148.242188 117.910156 147.046875 116.804688 C 145.683594 115.695312 144.402344 113.90625 143.121094 111.519531 C 141.585938 108.457031 140.820312 105.980469 140.820312 103.9375 Z M 131.320312 102.730469 C 133.457031 104.007812 135.25 106.054688 136.53125 108.78125 C 137.984375 111.679688 138.410156 114.324219 137.8125 116.792969 C 137.386719 118.925781 136.191406 120.542969 134.480469 121.394531 C 132.6875 122.335938 130.894531 122.25 128.929688 121.140625 C 126.796875 120.03125 125.003906 117.730469 123.636719 114.492188 C 122.183594 111.082031 121.753906 108.269531 122.355469 105.96875 C 122.78125 103.839844 123.890625 102.476562 125.683594 101.878906 C 127.476562 101.28125 129.269531 101.539062 131.316406 102.730469 Z M 131.320312 102.730469 "/>
<path style=" stroke:none;fill-rule:nonzero;fill:rgb(0%,0%,0%);fill-opacity:1;" d="M 142.421875 100.769531 C 141.3125 101.113281 140.800781 102.136719 140.800781 103.925781 C 140.800781 105.96875 141.570312 108.441406 143.109375 111.511719 C 144.390625 113.898438 145.671875 115.6875 147.035156 116.792969 C 148.230469 117.902344 149.253906 118.328125 150.195312 117.902344 C 151.050781 117.5625 151.476562 116.625 151.5625 115.003906 C 151.5625 113.214844 151.050781 111.085938 150.023438 108.359375 C 149.511719 106.992188 148.910156 105.800781 148.230469 104.863281 C 147.632812 103.839844 146.863281 102.988281 146.09375 102.21875 C 144.726562 100.941406 143.535156 100.515625 142.421875 100.769531 Z M 145.667969 102.988281 C 146.949219 104.351562 148.144531 106.226562 149.171875 108.78125 C 150.109375 110.914062 150.621094 112.789062 150.707031 114.324219 C 150.878906 115.769531 150.621094 116.707031 150.023438 117.050781 C 149.425781 117.476562 148.660156 117.050781 147.632812 116.027344 C 146.523438 114.921875 145.328125 113.042969 144.046875 110.40625 C 142.679688 107.847656 141.996094 105.632812 141.828125 103.925781 C 141.738281 102.480469 142.085938 101.628906 142.851562 101.457031 C 143.625 101.203125 144.5625 101.714844 145.675781 102.992188 Z M 145.667969 102.988281 "/>
<path style=" stroke:none;fill-rule:nonzero;fill:rgb(100%,100%,100%);fill-opacity:1;" d="M 149.171875 108.78125 C 148.144531 106.226562 146.949219 104.351562 145.667969 102.988281 C 144.558594 101.707031 143.621094 101.195312 142.851562 101.449219 C 142.082031 101.617188 141.742188 102.46875 141.828125 103.921875 C 142 105.625 142.679688 107.84375 144.046875 110.398438 C 145.328125 113.039062 146.523438 114.914062 147.636719 116.023438 C 148.664062 117.042969 149.429688 117.46875 150.03125 117.042969 C 150.628906 116.703125 150.886719 115.761719 150.71875 114.3125 C 150.636719 112.773438 150.121094 110.902344 149.183594 108.773438 Z M 149.171875 108.78125 "/>
<path style=" stroke:none;fill-rule:nonzero;fill:rgb(0%,0%,0%);fill-opacity:1;" d="M 136.53125 108.78125 C 135.25 106.054688 133.457031 104.007812 131.320312 102.730469 C 129.273438 101.539062 127.476562 101.28125 125.6875 101.878906 C 123.894531 102.476562 122.78125 103.839844 122.355469 105.96875 C 121.761719 108.269531 122.1875 111.085938 123.636719 114.492188 C 125.003906 117.734375 126.800781 120.035156 128.933594 121.140625 C 130.902344 122.25 132.691406 122.332031 134.484375 121.398438 C 136.195312 120.542969 137.394531 118.925781 137.816406 116.792969 C 138.414062 114.324219 137.988281 111.679688 136.535156 108.785156 Z M 130.894531 103.925781 C 132.6875 105.03125 134.140625 106.652344 135.164062 108.699219 C 136.617188 111.511719 137.128906 113.980469 136.789062 116.28125 C 136.527344 118.328125 135.675781 119.691406 134.226562 120.542969 C 132.773438 121.3125 131.234375 121.3125 129.609375 120.203125 C 127.730469 119.097656 126.195312 117.050781 125 113.980469 C 123.632812 110.652344 123.203125 107.929688 123.546875 105.96875 C 123.886719 104.179688 124.738281 103.15625 126.273438 102.816406 C 127.722656 102.472656 129.265625 102.816406 130.886719 103.921875 Z M 130.894531 103.925781 "/>
<path style=" stroke:none;fill-rule:nonzero;fill:rgb(100%,100%,100%);fill-opacity:1;" d="M 135.164062 108.695312 C 134.140625 106.652344 132.6875 105.03125 130.894531 103.921875 C 129.269531 102.816406 127.734375 102.476562 126.28125 102.816406 C 124.738281 103.15625 123.890625 104.179688 123.546875 105.96875 C 123.203125 107.929688 123.632812 110.65625 124.992188 113.980469 C 126.1875 117.050781 127.722656 119.097656 129.605469 120.203125 C 131.226562 121.3125 132.761719 121.3125 134.214844 120.542969 C 135.664062 119.695312 136.519531 118.332031 136.777344 116.285156 C 137.117188 113.988281 136.605469 111.515625 135.152344 108.699219 Z M 135.164062 108.695312 "/>
<path style=" stroke:none;fill-rule:nonzero;fill:rgb(0%,0%,0%);fill-opacity:1;" d="M 48.027344 75.808594 C 48.027344 62.421875 38.015625 51.570312 25.667969 51.570312 C 13.324219 51.570312 3.3125 62.421875 3.3125 75.808594 C 3.3125 89.191406 13.324219 100.042969 25.667969 100.042969 C 38.015625 100.042969 48.027344 89.191406 48.027344 75.808594 Z M 48.027344 75.808594 "/>
</g>
</svg>
